<?xml version="1.0" encoding="UTF-8" standalone="no"?>
<!DOCTYPE svg PUBLIC "-//W3C//DTD SVG 1.1//EN"
 "http://www.w3.org/Graphics/SVG/1.1/DTD/svg11.dtd">
<!-- Generated by graphviz version 2.42.4 (0)
 -->
<!-- Title: CodeQuestKernel Pages: 1 -->
<svg width="3049pt" height="1002pt"
 viewBox="0.00 0.00 3048.50 1002.00" xmlns="http://www.w3.org/2000/svg" xmlns:xlink="http://www.w3.org/1999/xlink">
<g id="graph0" class="graph" transform="scale(1 1) rotate(0) translate(4 998)">
<title>CodeQuestKernel</title>
<polygon fill="white" stroke="transparent" points="-4,4 -4,-998 3044.5,-998 3044.5,4 -4,4"/>
<text text-anchor="middle" x="1520.25" y="-977.2" font-family="Helvetica,sans-Serif" font-size="16.00">CodeQuest: A Lenda do Kernel — Diagrama de Classes</text>
<text text-anchor="middle" x="1520.25" y="-959.2" font-family="Helvetica,sans-Serif" font-size="16.00">(setas vazias = heranca | losango = composicao | tracejado = dependencia)</text>
<!-- Item -->
<g id="node1" class="node">
<title>Item</title>
<polygon fill="#fff3cd" stroke="black" points="515.5,-823.5 515.5,-949.5 648.5,-949.5 648.5,-823.5 515.5,-823.5"/>
<text text-anchor="middle" x="582" y="-933.7" font-family="Helvetica,sans-Serif" font-size="11.00">«abstract»</text>
<text text-anchor="middle" x="582" y="-921.7" font-family="Helvetica,sans-Serif" font-size="11.00">Item</text>
<polyline fill="none" stroke="black" points="515.5,-911.5 648.5,-911.5 "/>
<text text-anchor="start" x="524.5" y="-895.7" font-family="Helvetica,sans-Serif" font-size="11.00">&#45; nome: string</text>
<text text-anchor="start" x="524.5" y="-883.7" font-family="Helvetica,sans-Serif" font-size="11.00">&#45; peso: float</text>
<polyline fill="none" stroke="black" points="515.5,-873.5 648.5,-873.5 "/>
<text text-anchor="start" x="524.5" y="-857.7" font-family="Helvetica,sans-Serif" font-size="11.00">+ get_nome(): string</text>
<text text-anchor="start" x="524.5" y="-845.7" font-family="Helvetica,sans-Serif" font-size="11.00">+ get_peso(): float</text>
<text text-anchor="start" x="524.5" y="-833.7" font-family="Helvetica,sans-Serif" font-size="11.00">+ usar(): void</text>
</g>
<!-- Arma -->
<g id="node2" class="node">
<title>Arma</title>
<polygon fill="#ffe8a3" stroke="black" points="73.5,-584.5 73.5,-686.5 236.5,-686.5 236.5,-584.5 73.5,-584.5"/>
<text text-anchor="middle" x="155" y="-670.7" font-family="Helvetica,sans-Serif" font-size="11.00">Arma</text>
<polyline fill="none" stroke="black" points="73.5,-660.5 236.5,-660.5 "/>
<text text-anchor="start" x="82.5" y="-644.7" font-family="Helvetica,sans-Serif" font-size="11.00">&#45; dano: int</text>
<polyline fill="none" stroke="black" points="73.5,-634.5 236.5,-634.5 "/>
<text text-anchor="start" x="82.5" y="-618.7" font-family="Helvetica,sans-Serif" font-size="11.00">+ get_dano(): int</text>
<text text-anchor="start" x="82.5" y="-606.7" font-family="Helvetica,sans-Serif" font-size="11.00">+ operator+(Arma): Arma</text>
<text text-anchor="start" x="82.5" y="-594.7" font-family="Helvetica,sans-Serif" font-size="11.00">+ usar(): void</text>
</g>
<!-- Arma&#45;&gt;Item -->
<g id="edge1" class="edge">
<title>Arma&#45;&gt;Item</title>
<path fill="none" stroke="#444444" d="M199.26,-686.64C217.43,-705.29 239.48,-725.63 262,-741 339.02,-793.57 438.26,-834.91 505.66,-859.67"/>
<polygon fill="none" stroke="#444444" points="504.77,-863.07 515.37,-863.2 507.17,-856.49 504.77,-863.07"/>
</g>
<!-- Armadura -->
<g id="node3" class="node">
<title>Armadura</title>
<polygon fill="#ffe8a3" stroke="black" points="278,-590.5 278,-680.5 400,-680.5 400,-590.5 278,-590.5"/>
<text text-anchor="middle" x="339" y="-664.7" font-family="Helvetica,sans-Serif" font-size="11.00">Armadura</text>
<polyline fill="none" stroke="black" points="278,-654.5 400,-654.5 "/>
<text text-anchor="start" x="287" y="-638.7" font-family="Helvetica,sans-Serif" font-size="11.00">&#45; defesa: int</text>
<polyline fill="none" stroke="black" points="278,-628.5 400,-628.5 "/>
<text text-anchor="start" x="287" y="-612.7" font-family="Helvetica,sans-Serif" font-size="11.00">+ get_defesa(): int</text>
<text text-anchor="start" x="287" y="-600.7" font-family="Helvetica,sans-Serif" font-size="11.00">+ usar(): void</text>
</g>
<!-- Armadura&#45;&gt;Item -->
<g id="edge2" class="edge">
<title>Armadura&#45;&gt;Item</title>
<path fill="none" stroke="#444444" d="M368.26,-680.62C381.86,-699.92 398.82,-722.36 416,-741 443.82,-771.17 477.51,-801.46 507.25,-826.46"/>
<polygon fill="none" stroke="#444444" points="505.21,-829.31 515.13,-833.03 509.69,-823.93 505.21,-829.31"/>
</g>
<!-- Pocao -->
<g id="node4" class="node">
<title>Pocao</title>
<polygon fill="#ffe8a3" stroke="black" points="432,-578.5 432,-692.5 566,-692.5 566,-578.5 432,-578.5"/>
<text text-anchor="middle" x="499" y="-676.7" font-family="Helvetica,sans-Serif" font-size="11.00">Pocao</text>
<polyline fill="none" stroke="black" points="432,-666.5 566,-666.5 "/>
<text text-anchor="start" x="441" y="-650.7" font-family="Helvetica,sans-Serif" font-size="11.00">&#45; efeito: string</text>
<text text-anchor="start" x="441" y="-638.7" font-family="Helvetica,sans-Serif" font-size="11.00">&#45; valor: int</text>
<polyline fill="none" stroke="black" points="432,-628.5 566,-628.5 "/>
<text text-anchor="start" x="441" y="-612.7" font-family="Helvetica,sans-Serif" font-size="11.00">+ get_efeito(): string</text>
<text text-anchor="start" x="441" y="-600.7" font-family="Helvetica,sans-Serif" font-size="11.00">+ get_valor(): int</text>
<text text-anchor="start" x="441" y="-588.7" font-family="Helvetica,sans-Serif" font-size="11.00">+ usar(): void</text>
</g>
<!-- Pocao&#45;&gt;Item -->
<g id="edge3" class="edge">
<title>Pocao&#45;&gt;Item</title>
<path fill="none" stroke="#444444" d="M517.73,-692.69C529.68,-728.53 545.27,-775.3 558.1,-813.8"/>
<polygon fill="none" stroke="#444444" points="554.82,-815.02 561.3,-823.4 561.46,-812.8 554.82,-815.02"/>
</g>
<!-- ItemEspecial -->
<g id="node5" class="node">
<title>ItemEspecial</title>
<polygon fill="#ffe8a3" stroke="black" points="598,-578.5 598,-692.5 732,-692.5 732,-578.5 598,-578.5"/>
<text text-anchor="middle" x="665" y="-676.7" font-family="Helvetica,sans-Serif" font-size="11.00">ItemEspecial</text>
<polyline fill="none" stroke="black" points="598,-666.5 732,-666.5 "/>
<text text-anchor="start" x="607" y="-650.7" font-family="Helvetica,sans-Serif" font-size="11.00">&#45; efeito: string</text>
<text text-anchor="start" x="607" y="-638.7" font-family="Helvetica,sans-Serif" font-size="11.00">&#45; valor: int</text>
<polyline fill="none" stroke="black" points="598,-628.5 732,-628.5 "/>
<text text-anchor="start" x="607" y="-612.7" font-family="Helvetica,sans-Serif" font-size="11.00">+ get_efeito(): string</text>
<text text-anchor="start" x="607" y="-600.7" font-family="Helvetica,sans-Serif" font-size="11.00">+ get_valor(): int</text>
<text text-anchor="start" x="607" y="-588.7" font-family="Helvetica,sans-Serif" font-size="11.00">+ usar(): void</text>
</g>
<!-- ItemEspecial&#45;&gt;Item -->
<g id="edge4" class="edge">
<title>ItemEspecial&#45;&gt;Item</title>
<path fill="none" stroke="#444444" d="M646.27,-692.69C634.32,-728.53 618.73,-775.3 605.9,-813.8"/>
<polygon fill="none" stroke="#444444" points="602.54,-812.8 602.7,-823.4 609.18,-815.02 602.54,-812.8"/>
</g>
<!-- ItensConcretos -->
<g id="node6" class="node">
<title>ItensConcretos</title>
<polygon fill="#fff9e6" stroke="black" points="270,-371.5 0,-371.5 0,-297.5 276,-297.5 276,-365.5 270,-371.5"/>
<polyline fill="none" stroke="black" points="270,-371.5 270,-365.5 "/>
<polyline fill="none" stroke="black" points="276,-365.5 270,-365.5 "/>
<text text-anchor="start" x="9" y="-355.7" font-family="Helvetica,sans-Serif" font-size="11.00">{«produtos concretos»|Espada, Cajado, Adaga</text>
<text text-anchor="start" x="9" y="-343.7" font-family="Helvetica,sans-Serif" font-size="11.00">PeitorialFerro, MalhaEncantada, CouroFurtivo</text>
<text text-anchor="start" x="9" y="-331.7" font-family="Helvetica,sans-Serif" font-size="11.00">PocaoVida, PocaoMana, PocaoForca</text>
<text text-anchor="start" x="9" y="-319.7" font-family="Helvetica,sans-Serif" font-size="11.00">AnelFortuna, ReliquiaAntiga</text>
<text text-anchor="middle" x="138" y="-307.7" font-family="Helvetica,sans-Serif" font-size="11.00">}</text>
</g>
<!-- ItensConcretos&#45;&gt;Arma -->
<g id="edge5" class="edge">
<title>ItensConcretos&#45;&gt;Arma</title>
<path fill="none" stroke="#444444" stroke-dasharray="5,2" d="M140.05,-371.57C142.91,-421.78 148.12,-513.42 151.57,-574.14"/>
<polygon fill="none" stroke="#444444" points="148.09,-574.57 152.15,-584.36 155.08,-574.17 148.09,-574.57"/>
<text text-anchor="middle" x="226.5" y="-491.8" font-family="Helvetica,sans-Serif" font-size="9.00"> &#160;(e Armadura/Pocao/ItemEspecial)</text>
</g>
<!-- Inventario -->
<g id="node7" class="node">
<title>Inventario</title>
<polygon fill="#d6e9ff" stroke="black" points="1290.5,-530.5 1290.5,-740.5 1551.5,-740.5 1551.5,-530.5 1290.5,-530.5"/>
<text text-anchor="middle" x="1421" y="-724.7" font-family="Helvetica,sans-Serif" font-size="11.00">Inventario</text>
<polyline fill="none" stroke="black" points="1290.5,-714.5 1551.5,-714.5 "/>
<text text-anchor="start" x="1299.5" y="-698.7" font-family="Helvetica,sans-Serif" font-size="11.00">&#45; mochila: vector~Item*~</text>
<text text-anchor="start" x="1299.5" y="-686.7" font-family="Helvetica,sans-Serif" font-size="11.00">&#45; arma_equipada: Arma*</text>
<text text-anchor="start" x="1299.5" y="-674.7" font-family="Helvetica,sans-Serif" font-size="11.00">&#45; armadura_equipada: Armadura*</text>
<text text-anchor="start" x="1299.5" y="-662.7" font-family="Helvetica,sans-Serif" font-size="11.00">&#45; capacidade_max: int</text>
<text text-anchor="start" x="1299.5" y="-650.7" font-family="Helvetica,sans-Serif" font-size="11.00">&#45; peso_max: float</text>
<polyline fill="none" stroke="black" points="1290.5,-640.5 1551.5,-640.5 "/>
<text text-anchor="start" x="1299.5" y="-624.7" font-family="Helvetica,sans-Serif" font-size="11.00">+ adicionar_item(Item*): void</text>
<text text-anchor="start" x="1299.5" y="-612.7" font-family="Helvetica,sans-Serif" font-size="11.00">+ remover_item(string): Item*</text>
<text text-anchor="start" x="1299.5" y="-600.7" font-family="Helvetica,sans-Serif" font-size="11.00">+ equipar_arma(string): void</text>
<text text-anchor="start" x="1299.5" y="-588.7" font-family="Helvetica,sans-Serif" font-size="11.00">+ desequipar_arma(): void</text>
<text text-anchor="start" x="1299.5" y="-576.7" font-family="Helvetica,sans-Serif" font-size="11.00">+ bonus_ataque(): int</text>
<text text-anchor="start" x="1299.5" y="-564.7" font-family="Helvetica,sans-Serif" font-size="11.00">+ bonus_defesa(): int</text>
<text text-anchor="start" x="1299.5" y="-552.7" font-family="Helvetica,sans-Serif" font-size="11.00">+ usar_pocao(string, Jogador*): void</text>
<text text-anchor="start" x="1299.5" y="-540.7" font-family="Helvetica,sans-Serif" font-size="11.00">+ usar_item_especial(string, Jogador*): void</text>
</g>
<!-- Inventario&#45;&gt;Item -->
<g id="edge6" class="edge">
<title>Inventario&#45;&gt;Item</title>
<path fill="none" stroke="#444444" d="M1281.26,-738.16C1279.17,-739.14 1277.09,-740.08 1275,-741 1058.35,-836.04 775.67,-869.85 648.77,-880.78"/>
<polygon fill="#444444" stroke="#444444" points="1282.95,-741.23 1290.39,-733.68 1279.87,-734.94 1282.95,-741.23"/>
<text text-anchor="middle" x="1193.5" y="-784.8" font-family="Helvetica,sans-Serif" font-size="9.00"> &#160;1</text>
<text text-anchor="middle" x="1193.5" y="-774.8" font-family="Helvetica,sans-Serif" font-size="9.00">0..*</text>
</g>
<!-- Habilidade -->
<g id="node8" class="node">
<title>Habilidade</title>
<polygon fill="#e4d6ff" stroke="black" points="764.5,-572.5 764.5,-698.5 967.5,-698.5 967.5,-572.5 764.5,-572.5"/>
<text text-anchor="middle" x="866" y="-682.7" font-family="Helvetica,sans-Serif" font-size="11.00">«abstract»</text>
<text text-anchor="middle" x="866" y="-670.7" font-family="Helvetica,sans-Serif" font-size="11.00">Habilidade</text>
<polyline fill="none" stroke="black" points="764.5,-660.5 967.5,-660.5 "/>
<text text-anchor="start" x="773.5" y="-644.7" font-family="Helvetica,sans-Serif" font-size="11.00">&#45; nome: string</text>
<text text-anchor="start" x="773.5" y="-632.7" font-family="Helvetica,sans-Serif" font-size="11.00">&#45; ativa: bool</text>
<polyline fill="none" stroke="black" points="764.5,-622.5 967.5,-622.5 "/>
<text text-anchor="start" x="773.5" y="-606.7" font-family="Helvetica,sans-Serif" font-size="11.00">+ get_nome(): string</text>
<text text-anchor="start" x="773.5" y="-594.7" font-family="Helvetica,sans-Serif" font-size="11.00">+ eh_ativa(): bool</text>
<text text-anchor="start" x="773.5" y="-582.7" font-family="Helvetica,sans-Serif" font-size="11.00">+ efeito(Jogador*, Jogador*): void</text>
</g>
<!-- HabOfensiva -->
<g id="node9" class="node">
<title>HabOfensiva</title>
<polygon fill="#efe2ff" stroke="black" points="812.5,-302.5 812.5,-366.5 937.5,-366.5 937.5,-302.5 812.5,-302.5"/>
<text text-anchor="middle" x="875" y="-350.7" font-family="Helvetica,sans-Serif" font-size="11.00">«abstract»</text>
<text text-anchor="middle" x="875" y="-338.7" font-family="Helvetica,sans-Serif" font-size="11.00">HabilidadeOfensiva</text>
<polyline fill="none" stroke="black" points="812.5,-328.5 937.5,-328.5 "/>
<text text-anchor="start" x="821.5" y="-312.7" font-family="Helvetica,sans-Serif" font-size="11.00"># dano_base: int</text>
</g>
<!-- HabOfensiva&#45;&gt;Habilidade -->
<g id="edge7" class="edge">
<title>HabOfensiva&#45;&gt;Habilidade</title>
<path fill="none" stroke="#444444" d="M874.06,-366.65C872.68,-412.56 870.06,-499.67 868.18,-562.1"/>
<polygon fill="none" stroke="#444444" points="864.68,-562.18 867.87,-572.28 871.67,-562.39 864.68,-562.18"/>
</g>
<!-- HabDefensiva -->
<g id="node10" class="node">
<title>HabDefensiva</title>
<polygon fill="#efe2ff" stroke="black" points="969.5,-302.5 969.5,-366.5 1100.5,-366.5 1100.5,-302.5 969.5,-302.5"/>
<text text-anchor="middle" x="1035" y="-350.7" font-family="Helvetica,sans-Serif" font-size="11.00">«abstract»</text>
<text text-anchor="middle" x="1035" y="-338.7" font-family="Helvetica,sans-Serif" font-size="11.00">HabilidadeDefensiva</text>
<polyline fill="none" stroke="black" points="969.5,-328.5 1100.5,-328.5 "/>
<text text-anchor="start" x="978.5" y="-312.7" font-family="Helvetica,sans-Serif" font-size="11.00"># valor_defesa: int</text>
</g>
<!-- HabDefensiva&#45;&gt;Habilidade -->
<g id="edge8" class="edge">
<title>HabDefensiva&#45;&gt;Habilidade</title>
<path fill="none" stroke="#444444" d="M1017.39,-366.65C991.28,-412.84 941.6,-500.75 906.27,-563.25"/>
<polygon fill="none" stroke="#444444" points="903.04,-561.86 901.17,-572.28 909.13,-565.3 903.04,-561.86"/>
</g>
<!-- HabSuporte -->
<g id="node11" class="node">
<title>HabSuporte</title>
<polygon fill="#efe2ff" stroke="black" points="308.5,-302.5 308.5,-366.5 427.5,-366.5 427.5,-302.5 308.5,-302.5"/>
<text text-anchor="middle" x="368" y="-350.7" font-family="Helvetica,sans-Serif" font-size="11.00">«abstract»</text>
<text text-anchor="middle" x="368" y="-338.7" font-family="Helvetica,sans-Serif" font-size="11.00">HabilidadeSuporte</text>
<polyline fill="none" stroke="black" points="308.5,-328.5 427.5,-328.5 "/>
<text text-anchor="start" x="317.5" y="-312.7" font-family="Helvetica,sans-Serif" font-size="11.00"># valor_cura: int</text>
</g>
<!-- HabSuporte&#45;&gt;Habilidade -->
<g id="edge9" class="edge">
<title>HabSuporte&#45;&gt;Habilidade</title>
<path fill="none" stroke="#444444" d="M378.97,-366.53C390.53,-394.69 411.49,-435.19 443,-458 555.82,-539.68 624.35,-465.89 748,-530 766.16,-539.42 783.78,-552.25 799.63,-565.69"/>
<polygon fill="none" stroke="#444444" points="797.41,-568.41 807.25,-572.33 802.01,-563.13 797.41,-568.41"/>
</g>
<!-- HabConcretas -->
<g id="node12" class="node">
<title>HabConcretas</title>
<polygon fill="#f5eeff" stroke="black" points="744.5,-100.5 365.5,-100.5 365.5,-38.5 750.5,-38.5 750.5,-94.5 744.5,-100.5"/>
<polyline fill="none" stroke="black" points="744.5,-100.5 744.5,-94.5 "/>
<polyline fill="none" stroke="black" points="750.5,-94.5 744.5,-94.5 "/>
<text text-anchor="start" x="374.5" y="-84.7" font-family="Helvetica,sans-Serif" font-size="11.00">{«habilidades concretas»|GolpePoderoso, BolaDeFogo (Ofensivas)</text>
<text text-anchor="start" x="374.5" y="-72.7" font-family="Helvetica,sans-Serif" font-size="11.00">PosturaDefensiva (Defensiva)</text>
<text text-anchor="start" x="374.5" y="-60.7" font-family="Helvetica,sans-Serif" font-size="11.00">CuraMenor, Regeneracao (Suporte, passiva)</text>
<text text-anchor="middle" x="558" y="-48.7" font-family="Helvetica,sans-Serif" font-size="11.00">}</text>
</g>
<!-- HabConcretas&#45;&gt;HabOfensiva -->
<g id="edge10" class="edge">
<title>HabConcretas&#45;&gt;HabOfensiva</title>
<path fill="none" stroke="#444444" stroke-dasharray="5,2" d="M627,-100.54C677.83,-125.05 746.45,-163.37 796,-211 820.7,-234.74 841.37,-267.63 855.36,-293.35"/>
<polygon fill="none" stroke="#444444" points="852.43,-295.29 860.21,-302.47 858.61,-292 852.43,-295.29"/>
<text text-anchor="middle" x="808.5" y="-172.8" font-family="Helvetica,sans-Serif" font-size="9.00"> &#160;(e Defensiva/Suporte)</text>
</g>
<!-- Observador -->
<g id="node13" class="node">
<title>Observador</title>
<polygon fill="#d9f2d6" stroke="black" points="1591,-603.5 1591,-667.5 1739,-667.5 1739,-603.5 1591,-603.5"/>
<text text-anchor="middle" x="1665" y="-651.7" font-family="Helvetica,sans-Serif" font-size="11.00">«abstract»</text>
<text text-anchor="middle" x="1665" y="-639.7" font-family="Helvetica,sans-Serif" font-size="11.00">ObservadorDeEventos</text>
<polyline fill="none" stroke="black" points="1591,-629.5 1739,-629.5 "/>
<text text-anchor="start" x="1600" y="-613.7" font-family="Helvetica,sans-Serif" font-size="11.00">+ notificar(string): void</text>
</g>
<!-- NotifConsole -->
<g id="node14" class="node">
<title>NotifConsole</title>
<polygon fill="#e8f8e6" stroke="black" points="1598,-308.5 1598,-360.5 1746,-360.5 1746,-308.5 1598,-308.5"/>
<text text-anchor="middle" x="1672" y="-344.7" font-family="Helvetica,sans-Serif" font-size="11.00">NotificadorConsole</text>
<polyline fill="none" stroke="black" points="1598,-334.5 1746,-334.5 "/>
<text text-anchor="start" x="1607" y="-318.7" font-family="Helvetica,sans-Serif" font-size="11.00">+ notificar(string): void</text>
</g>
<!-- NotifConsole&#45;&gt;Observador -->
<g id="edge11" class="edge">
<title>NotifConsole&#45;&gt;Observador</title>
<path fill="none" stroke="#444444" d="M1671.41,-360.73C1670.2,-412.24 1667.45,-529.91 1665.97,-592.9"/>
<polygon fill="none" stroke="#444444" points="1662.47,-593.18 1665.73,-603.26 1669.46,-593.34 1662.47,-593.18"/>
</g>
<!-- Raca -->
<g id="node15" class="node">
<title>Raca</title>
<polygon fill="#d9ead3" stroke="black" points="1875,-591.5 1875,-679.5 2075,-679.5 2075,-591.5 1875,-591.5"/>
<text text-anchor="middle" x="1975" y="-663.7" font-family="Helvetica,sans-Serif" font-size="11.00">«abstract»</text>
<text text-anchor="middle" x="1975" y="-651.7" font-family="Helvetica,sans-Serif" font-size="11.00">Raca</text>
<polyline fill="none" stroke="black" points="1875,-641.5 2075,-641.5 "/>
<text text-anchor="start" x="1884" y="-625.7" font-family="Helvetica,sans-Serif" font-size="11.00">+ get_nome(): string</text>
<text text-anchor="start" x="1884" y="-613.7" font-family="Helvetica,sans-Serif" font-size="11.00">+ get_descricao(): string</text>
<text text-anchor="start" x="1884" y="-601.7" font-family="Helvetica,sans-Serif" font-size="11.00">+ aplicar_bonus_base(int&amp;): void</text>
</g>
<!-- Humano -->
<g id="node16" class="node">
<title>Humano</title>
<polygon fill="#eaf7e8" stroke="black" points="2359,-316.5 2359,-352.5 2423,-352.5 2423,-316.5 2359,-316.5"/>
<text text-anchor="middle" x="2391" y="-331.7" font-family="Helvetica,sans-Serif" font-size="11.00">Humano</text>
</g>
<!-- Humano&#45;&gt;Raca -->
<g id="edge12" class="edge">
<title>Humano&#45;&gt;Raca</title>
<path fill="none" stroke="#444444" d="M2388.38,-352.65C2383.62,-378.48 2371.29,-427.54 2343,-458 2273.61,-532.71 2165.95,-579.2 2084.97,-605.58"/>
<polygon fill="none" stroke="#444444" points="2083.69,-602.32 2075.24,-608.7 2085.83,-608.99 2083.69,-602.32"/>
</g>
<!-- Elfo -->
<g id="node17" class="node">
<title>Elfo</title>
<polygon fill="#eaf7e8" stroke="black" points="1778,-316.5 1778,-352.5 1832,-352.5 1832,-316.5 1778,-316.5"/>
<text text-anchor="middle" x="1805" y="-331.7" font-family="Helvetica,sans-Serif" font-size="11.00">Elfo</text>
</g>
<!-- Elfo&#45;&gt;Raca -->
<g id="edge13" class="edge">
<title>Elfo&#45;&gt;Raca</title>
<path fill="none" stroke="#444444" d="M1809.57,-352.76C1816.36,-377.06 1830.34,-422.37 1849,-458 1872.53,-502.93 1906.18,-549.44 1932.79,-583.43"/>
<polygon fill="none" stroke="#444444" points="1930.1,-585.68 1939.04,-591.36 1935.6,-581.34 1930.1,-585.68"/>
</g>
<!-- Anao -->
<g id="node18" class="node">
<title>Anao</title>
<polygon fill="#eaf7e8" stroke="black" points="1864.5,-308.5 1864.5,-360.5 1959.5,-360.5 1959.5,-308.5 1864.5,-308.5"/>
<text text-anchor="middle" x="1912" y="-344.7" font-family="Helvetica,sans-Serif" font-size="11.00">Anao</text>
<polyline fill="none" stroke="black" points="1864.5,-334.5 1959.5,-334.5 "/>
<text text-anchor="middle" x="1912" y="-318.7" font-family="Helvetica,sans-Serif" font-size="11.00">+25 HP inicial</text>
</g>
<!-- Anao&#45;&gt;Raca -->
<g id="edge14" class="edge">
<title>Anao&#45;&gt;Raca</title>
<path fill="none" stroke="#444444" d="M1917.32,-360.73C1927.54,-409.25 1950.13,-516.45 1963.81,-581.38"/>
<polygon fill="none" stroke="#444444" points="1960.44,-582.36 1965.92,-591.42 1967.29,-580.92 1960.44,-582.36"/>
</g>
<!-- Orc -->
<g id="node19" class="node">
<title>Orc</title>
<polygon fill="#eaf7e8" stroke="black" points="1991.5,-308.5 1991.5,-360.5 2086.5,-360.5 2086.5,-308.5 1991.5,-308.5"/>
<text text-anchor="middle" x="2039" y="-344.7" font-family="Helvetica,sans-Serif" font-size="11.00">Orc</text>
<polyline fill="none" stroke="black" points="1991.5,-334.5 2086.5,-334.5 "/>
<text text-anchor="middle" x="2039" y="-318.7" font-family="Helvetica,sans-Serif" font-size="11.00">+15 HP inicial</text>
</g>
<!-- Orc&#45;&gt;Raca -->
<g id="edge15" class="edge">
<title>Orc&#45;&gt;Raca</title>
<path fill="none" stroke="#444444" d="M2033.6,-360.73C2023.21,-409.25 2000.27,-516.45 1986.37,-581.38"/>
<polygon fill="none" stroke="#444444" points="1982.89,-580.91 1984.22,-591.42 1989.74,-582.38 1982.89,-580.91"/>
</g>
<!-- Jogador -->
<g id="node20" class="node">
<title>Jogador</title>
<polygon fill="#ffd6d6" stroke="black" points="1275.5,-211.5 1275.5,-457.5 1566.5,-457.5 1566.5,-211.5 1275.5,-211.5"/>
<text text-anchor="middle" x="1421" y="-441.7" font-family="Helvetica,sans-Serif" font-size="11.00">«abstract»</text>
<text text-anchor="middle" x="1421" y="-429.7" font-family="Helvetica,sans-Serif" font-size="11.00">Jogador</text>
<polyline fill="none" stroke="black" points="1275.5,-419.5 1566.5,-419.5 "/>
<text text-anchor="start" x="1284.5" y="-403.7" font-family="Helvetica,sans-Serif" font-size="11.00">&#45; nome: string</text>
<text text-anchor="start" x="1284.5" y="-391.7" font-family="Helvetica,sans-Serif" font-size="11.00">&#45; raca: Raca*</text>
<text text-anchor="start" x="1284.5" y="-379.7" font-family="Helvetica,sans-Serif" font-size="11.00">&#45; nivel, hp_max, hp_atual, xp: int</text>
<text text-anchor="start" x="1284.5" y="-367.7" font-family="Helvetica,sans-Serif" font-size="11.00">&#45; inventario: Inventario</text>
<text text-anchor="start" x="1284.5" y="-355.7" font-family="Helvetica,sans-Serif" font-size="11.00">&#45; habilidades: vector~Habilidade*~</text>
<text text-anchor="start" x="1284.5" y="-343.7" font-family="Helvetica,sans-Serif" font-size="11.00">&#45; observadores: vector~ObservadorDeEventos*~</text>
<polyline fill="none" stroke="black" points="1275.5,-333.5 1566.5,-333.5 "/>
<text text-anchor="start" x="1284.5" y="-317.7" font-family="Helvetica,sans-Serif" font-size="11.00">+ atacar(): int</text>
<text text-anchor="start" x="1284.5" y="-305.7" font-family="Helvetica,sans-Serif" font-size="11.00">+ receber_dano(int): void</text>
<text text-anchor="start" x="1284.5" y="-293.7" font-family="Helvetica,sans-Serif" font-size="11.00">+ usar_habilidade(string, Jogador*): void</text>
<text text-anchor="start" x="1284.5" y="-281.7" font-family="Helvetica,sans-Serif" font-size="11.00">+ serializar_habilidades(): string</text>
<text text-anchor="start" x="1284.5" y="-269.7" font-family="Helvetica,sans-Serif" font-size="11.00">+ restaurar_habilidades(string): void</text>
<text text-anchor="start" x="1284.5" y="-257.7" font-family="Helvetica,sans-Serif" font-size="11.00">+ operator&lt;&lt;(ostream&amp;, Jogador&amp;): ostream&amp;</text>
<text text-anchor="start" x="1284.5" y="-245.7" font-family="Helvetica,sans-Serif" font-size="11.00">+ operator==(Jogador&amp;): bool</text>
<text text-anchor="start" x="1284.5" y="-233.7" font-family="Helvetica,sans-Serif" font-size="11.00">+ operator&lt;(Jogador&amp;): bool</text>
<text text-anchor="start" x="1284.5" y="-221.7" font-family="Helvetica,sans-Serif" font-size="11.00">+ consumir_recurso(int): bool</text>
</g>
<!-- Jogador&#45;&gt;Inventario -->
<g id="edge17" class="edge">
<title>Jogador&#45;&gt;Inventario</title>
<path fill="none" stroke="#444444" d="M1421,-457.55C1421,-477.47 1421,-498.07 1421,-517.86"/>
<polygon fill="#444444" stroke="#444444" points="1421,-518.06 1425,-524.06 1421,-530.06 1417,-524.06 1421,-518.06"/>
<text text-anchor="middle" x="1427.5" y="-491.8" font-family="Helvetica,sans-Serif" font-size="9.00"> &#160;1</text>
</g>
<!-- Jogador&#45;&gt;Habilidade -->
<g id="edge18" class="edge">
<title>Jogador&#45;&gt;Habilidade</title>
<path fill="none" stroke="#444444" d="M1275.43,-394.66C1169.02,-438.95 1034.8,-497.31 984,-530 968.43,-540.02 952.84,-552.05 938.34,-564.32"/>
<polygon fill="#444444" stroke="#444444" points="938.06,-564.56 936.13,-571.51 928.97,-572.4 930.9,-565.45 938.06,-564.56"/>
<text text-anchor="middle" x="1064.5" y="-491.8" font-family="Helvetica,sans-Serif" font-size="9.00"> &#160;0..*</text>
</g>
<!-- Jogador&#45;&gt;Observador -->
<g id="edge19" class="edge">
<title>Jogador&#45;&gt;Observador</title>
<path fill="none" stroke="#444444" stroke-dasharray="5,2" d="M1520.6,-457.55C1560.22,-506.11 1603.12,-558.67 1631.77,-593.78"/>
<polygon fill="none" stroke="#444444" points="1631.87,-593.91 1638.77,-596.02 1639.46,-603.2 1632.57,-601.08 1631.87,-593.91"/>
<text text-anchor="middle" x="1583.5" y="-491.8" font-family="Helvetica,sans-Serif" font-size="9.00"> &#160;0..* (notifica)</text>
</g>
<!-- Jogador&#45;&gt;Raca -->
<g id="edge16" class="edge">
<title>Jogador&#45;&gt;Raca</title>
<path fill="none" stroke="#444444" d="M1566.89,-448.95C1571.93,-452.08 1576.98,-455.11 1582,-458 1654.17,-499.55 1678.92,-496.12 1755,-530 1794.82,-547.73 1838.23,-568.12 1875.9,-586.16"/>
<polygon fill="#444444" stroke="#444444" points="1876.06,-586.24 1883.2,-585.23 1886.88,-591.43 1879.74,-592.44 1876.06,-586.24"/>
<text text-anchor="middle" x="1678.5" y="-491.8" font-family="Helvetica,sans-Serif" font-size="9.00"> &#160;1</text>
</g>
<!-- Guerreiro -->
<g id="node21" class="node">
<title>Guerreiro</title>
<polygon fill="#ffeaea" stroke="black" points="1544,-24.5 1544,-114.5 1674,-114.5 1674,-24.5 1544,-24.5"/>
<text text-anchor="middle" x="1609" y="-98.7" font-family="Helvetica,sans-Serif" font-size="11.00">Guerreiro</text>
<polyline fill="none" stroke="black" points="1544,-88.5 1674,-88.5 "/>
<text text-anchor="start" x="1553" y="-72.7" font-family="Helvetica,sans-Serif" font-size="11.00">&#45; forca: int</text>
<polyline fill="none" stroke="black" points="1544,-62.5 1674,-62.5 "/>
<text text-anchor="start" x="1553" y="-46.7" font-family="Helvetica,sans-Serif" font-size="11.00">+ atacar(): int</text>
<text text-anchor="start" x="1553" y="-34.7" font-family="Helvetica,sans-Serif" font-size="11.00">+ serializar(): string</text>
</g>
<!-- Guerreiro&#45;&gt;Jogador -->
<g id="edge20" class="edge">
<title>Guerreiro&#45;&gt;Jogador</title>
<path fill="none" stroke="#444444" d="M1577.53,-114.52C1560.02,-139.02 1537.21,-170.93 1514.44,-202.78"/>
<polygon fill="none" stroke="#444444" points="1511.31,-201.14 1508.34,-211.31 1517.01,-205.21 1511.31,-201.14"/>
</g>
<!-- Mago -->
<g id="node22" class="node">
<title>Mago</title>
<polygon fill="#ffeaea" stroke="black" points="782.5,-24.5 782.5,-114.5 999.5,-114.5 999.5,-24.5 782.5,-24.5"/>
<text text-anchor="middle" x="891" y="-98.7" font-family="Helvetica,sans-Serif" font-size="11.00">Mago</text>
<polyline fill="none" stroke="black" points="782.5,-88.5 999.5,-88.5 "/>
<text text-anchor="start" x="791.5" y="-72.7" font-family="Helvetica,sans-Serif" font-size="11.00">&#45; inteligencia, mana, mana_max: int</text>
<polyline fill="none" stroke="black" points="782.5,-62.5 999.5,-62.5 "/>
<text text-anchor="start" x="791.5" y="-46.7" font-family="Helvetica,sans-Serif" font-size="11.00">+ atacar(): int</text>
<text text-anchor="start" x="791.5" y="-34.7" font-family="Helvetica,sans-Serif" font-size="11.00">+ consumir_recurso(int): bool</text>
</g>
<!-- Mago&#45;&gt;Jogador -->
<g id="edge21" class="edge">
<title>Mago&#45;&gt;Jogador</title>
<path fill="none" stroke="#444444" d="M970.01,-114.63C985.2,-122.87 1001.03,-131.31 1016,-139 1097.84,-181.04 1190.25,-225.63 1266.1,-261.5"/>
<polygon fill="none" stroke="#444444" points="1264.73,-264.72 1275.27,-265.83 1267.72,-258.39 1264.73,-264.72"/>
</g>
<!-- Monstro -->
<g id="node23" class="node">
<title>Monstro</title>
<polygon fill="#ffeaea" stroke="black" points="1032,-24.5 1032,-114.5 1168,-114.5 1168,-24.5 1032,-24.5"/>
<text text-anchor="middle" x="1100" y="-98.7" font-family="Helvetica,sans-Serif" font-size="11.00">Monstro</text>
<polyline fill="none" stroke="black" points="1032,-88.5 1168,-88.5 "/>
<text text-anchor="start" x="1041" y="-72.7" font-family="Helvetica,sans-Serif" font-size="11.00">&#45; ferocidade: int</text>
<text text-anchor="start" x="1041" y="-60.7" font-family="Helvetica,sans-Serif" font-size="11.00">&#45; chance_critico: float</text>
<polyline fill="none" stroke="black" points="1032,-50.5 1168,-50.5 "/>
<text text-anchor="start" x="1041" y="-34.7" font-family="Helvetica,sans-Serif" font-size="11.00">+ atacar(): int</text>
</g>
<!-- Monstro&#45;&gt;Jogador -->
<g id="edge22" class="edge">
<title>Monstro&#45;&gt;Jogador</title>
<path fill="none" stroke="#444444" d="M1153.73,-114.52C1185.17,-140.28 1226.61,-174.23 1267.45,-207.69"/>
<polygon fill="none" stroke="#444444" points="1265.38,-210.52 1275.33,-214.15 1269.82,-205.11 1265.38,-210.52"/>
</g>
<!-- Arqueiro -->
<g id="node24" class="node">
<title>Arqueiro</title>
<polygon fill="#ffeaea" stroke="black" points="1200.5,-24.5 1200.5,-114.5 1297.5,-114.5 1297.5,-24.5 1200.5,-24.5"/>
<text text-anchor="middle" x="1249" y="-98.7" font-family="Helvetica,sans-Serif" font-size="11.00">Arqueiro</text>
<polyline fill="none" stroke="black" points="1200.5,-88.5 1297.5,-88.5 "/>
<text text-anchor="start" x="1209.5" y="-72.7" font-family="Helvetica,sans-Serif" font-size="11.00">&#45; destreza: int</text>
<text text-anchor="start" x="1209.5" y="-60.7" font-family="Helvetica,sans-Serif" font-size="11.00">&#45; flechas: int</text>
<polyline fill="none" stroke="black" points="1200.5,-50.5 1297.5,-50.5 "/>
<text text-anchor="start" x="1209.5" y="-34.7" font-family="Helvetica,sans-Serif" font-size="11.00">+ atacar(): int</text>
</g>
<!-- Arqueiro&#45;&gt;Jogador -->
<g id="edge23" class="edge">
<title>Arqueiro&#45;&gt;Jogador</title>
<path fill="none" stroke="#444444" d="M1277.79,-114.52C1293.81,-139.02 1314.68,-170.93 1335.51,-202.78"/>
<polygon fill="none" stroke="#444444" points="1332.69,-204.86 1341.09,-211.31 1338.54,-201.03 1332.69,-204.86"/>
</g>
<!-- Clerigo -->
<g id="node25" class="node">
<title>Clerigo</title>
<polygon fill="#ffeaea" stroke="black" points="1330,-18.5 1330,-120.5 1512,-120.5 1512,-18.5 1330,-18.5"/>
<text text-anchor="middle" x="1421" y="-104.7" font-family="Helvetica,sans-Serif" font-size="11.00">Clerigo</text>
<polyline fill="none" stroke="black" points="1330,-94.5 1512,-94.5 "/>
<text text-anchor="start" x="1339" y="-78.7" font-family="Helvetica,sans-Serif" font-size="11.00">&#45; sabedoria: int</text>
<text text-anchor="start" x="1339" y="-66.7" font-family="Helvetica,sans-Serif" font-size="11.00">&#45; fe, fe_max: int</text>
<polyline fill="none" stroke="black" points="1330,-56.5 1512,-56.5 "/>
<text text-anchor="start" x="1339" y="-40.7" font-family="Helvetica,sans-Serif" font-size="11.00">+ atacar(): int</text>
<text text-anchor="start" x="1339" y="-28.7" font-family="Helvetica,sans-Serif" font-size="11.00">+ consumir_recurso(int): bool</text>
</g>
<!-- Clerigo&#45;&gt;Jogador -->
<g id="edge24" class="edge">
<title>Clerigo&#45;&gt;Jogador</title>
<path fill="none" stroke="#444444" d="M1421,-120.59C1421,-143.72 1421,-172.39 1421,-201.12"/>
<polygon fill="none" stroke="#444444" points="1417.5,-201.27 1421,-211.27 1424.5,-201.27 1417.5,-201.27"/>
</g>
<!-- Estrategia -->
<g id="node26" class="node">
<title>Estrategia</title>
<polygon fill="#ffe0cc" stroke="black" points="2643.5,-302.5 2643.5,-366.5 2946.5,-366.5 2946.5,-302.5 2643.5,-302.5"/>
<text text-anchor="middle" x="2795" y="-350.7" font-family="Helvetica,sans-Serif" font-size="11.00">«abstract»</text>
<text text-anchor="middle" x="2795" y="-338.7" font-family="Helvetica,sans-Serif" font-size="11.00">EstrategiaDeAlvo</text>
<polyline fill="none" stroke="black" points="2643.5,-328.5 2946.5,-328.5 "/>
<text text-anchor="start" x="2652.5" y="-312.7" font-family="Helvetica,sans-Serif" font-size="11.00">+ escolher(Jogador*, vector~Jogador*~&amp;): Jogador*</text>
</g>
<!-- AlvoRR -->
<g id="node27" class="node">
<title>AlvoRR</title>
<polygon fill="#ffebdd" stroke="black" points="2674,-51.5 2674,-87.5 2782,-87.5 2782,-51.5 2674,-51.5"/>
<text text-anchor="middle" x="2728" y="-66.7" font-family="Helvetica,sans-Serif" font-size="11.00">AlvoRoundRobin</text>
</g>
<!-- AlvoRR&#45;&gt;Estrategia -->
<g id="edge25" class="edge">
<title>AlvoRR&#45;&gt;Estrategia</title>
<path fill="none" stroke="#444444" d="M2732.4,-87.76C2742.89,-128.94 2769.62,-233.89 2784.54,-292.44"/>
<polygon fill="none" stroke="#444444" points="2781.23,-293.63 2787.09,-302.46 2788.02,-291.91 2781.23,-293.63"/>
</g>
<!-- AlvoFraco -->
<g id="node28" class="node">
<title>AlvoFraco</title>
<polygon fill="#ffebdd" stroke="black" points="2814.5,-51.5 2814.5,-87.5 2911.5,-87.5 2911.5,-51.5 2814.5,-51.5"/>
<text text-anchor="middle" x="2863" y="-66.7" font-family="Helvetica,sans-Serif" font-size="11.00">AlvoMaisFraco</text>
</g>
<!-- AlvoFraco&#45;&gt;Estrategia -->
<g id="edge26" class="edge">
<title>AlvoFraco&#45;&gt;Estrategia</title>
<path fill="none" stroke="#444444" d="M2858.54,-87.76C2847.89,-128.94 2820.76,-233.89 2805.62,-292.44"/>
<polygon fill="none" stroke="#444444" points="2802.14,-291.9 2803.03,-302.46 2808.92,-293.65 2802.14,-291.9"/>
</g>
<!-- AlvoForte -->
<g id="node29" class="node">
<title>AlvoForte</title>
<polygon fill="#ffebdd" stroke="black" points="2943.5,-51.5 2943.5,-87.5 3040.5,-87.5 3040.5,-51.5 2943.5,-51.5"/>
<text text-anchor="middle" x="2992" y="-66.7" font-family="Helvetica,sans-Serif" font-size="11.00">AlvoMaisForte</text>
</g>
<!-- AlvoForte&#45;&gt;Estrategia -->
<g id="edge27" class="edge">
<title>AlvoForte&#45;&gt;Estrategia</title>
<path fill="none" stroke="#444444" d="M2979.07,-87.76C2947.91,-129.36 2867.98,-236.07 2824.41,-294.24"/>
<polygon fill="none" stroke="#444444" points="2821.44,-292.36 2818.25,-302.46 2827.05,-296.55 2821.44,-292.36"/>
</g>
<!-- Batalha -->
<g id="node30" class="node">
<title>Batalha</title>
<polygon fill="#d6f0ff" stroke="black" points="2374,-0.5 2374,-138.5 2642,-138.5 2642,-0.5 2374,-0.5"/>
<text text-anchor="middle" x="2508" y="-122.7" font-family="Helvetica,sans-Serif" font-size="11.00">Batalha</text>
<polyline fill="none" stroke="black" points="2374,-112.5 2642,-112.5 "/>
<text text-anchor="start" x="2383" y="-96.7" font-family="Helvetica,sans-Serif" font-size="11.00">&#45; participantes: vector~Jogador*~</text>
<text text-anchor="start" x="2383" y="-84.7" font-family="Helvetica,sans-Serif" font-size="11.00">&#45; log: list~string~</text>
<text text-anchor="start" x="2383" y="-72.7" font-family="Helvetica,sans-Serif" font-size="11.00">&#45; dano_causado: map~string,int~</text>
<text text-anchor="start" x="2383" y="-60.7" font-family="Helvetica,sans-Serif" font-size="11.00">&#45; estrategia: EstrategiaDeAlvo*</text>
<polyline fill="none" stroke="black" points="2374,-50.5 2642,-50.5 "/>
<text text-anchor="start" x="2383" y="-34.7" font-family="Helvetica,sans-Serif" font-size="11.00">+ executar_turno(): void</text>
<text text-anchor="start" x="2383" y="-22.7" font-family="Helvetica,sans-Serif" font-size="11.00">+ iniciar(int): void</text>
<text text-anchor="start" x="2383" y="-10.7" font-family="Helvetica,sans-Serif" font-size="11.00">+ definir_estrategia(EstrategiaDeAlvo*): void</text>
</g>
<!-- Batalha&#45;&gt;Jogador -->
<g id="edge28" class="edge">
<title>Batalha&#45;&gt;Jogador</title>
<path fill="none" stroke="#444444" d="M2373.87,-134.32C2368.56,-136.03 2363.26,-137.6 2358,-139 2337.08,-144.57 1602.17,-203.14 1582,-211 1580.1,-211.74 1578.2,-212.51 1576.3,-213.31"/>
<polygon fill="#444444" stroke="#444444" points="1566.87,-217.52 1574.16,-209.34 1571.43,-215.49 1576,-213.45 1576,-213.45 1576,-213.45 1571.43,-215.49 1577.84,-217.55 1566.87,-217.52 1566.87,-217.52"/>
<text text-anchor="middle" x="2049" y="-172.8" font-family="Helvetica,sans-Serif" font-size="9.00"> &#160;orquestra 2..*</text>
</g>
<!-- Batalha&#45;&gt;Estrategia -->
<g id="edge29" class="edge">
<title>Batalha&#45;&gt;Estrategia</title>
<path fill="none" stroke="#444444" d="M2582.28,-138.57C2636.2,-187.98 2707.26,-253.1 2752.05,-294.14"/>
<polygon fill="#444444" stroke="#444444" points="2752.07,-294.16 2759.2,-295.27 2760.92,-302.27 2753.79,-301.17 2752.07,-294.16"/>
<text text-anchor="middle" x="2656" y="-172.8" font-family="Helvetica,sans-Serif" font-size="9.00"> &#160;1 (Strategy)</text>
</g>
<!-- ItemFactory -->
<g id="node31" class="node">
<title>ItemFactory</title>
<polygon fill="#e6e6e6" stroke="black" points="1258.5,-696.5 999.5,-696.5 999.5,-692.5 995.5,-692.5 995.5,-688.5 999.5,-688.5 999.5,-582.5 995.5,-582.5 995.5,-578.5 999.5,-578.5 999.5,-574.5 1258.5,-574.5 1258.5,-696.5"/>
<polyline fill="none" stroke="black" points="999.5,-692.5 1003.5,-692.5 1003.5,-688.5 999.5,-688.5 "/>
<polyline fill="none" stroke="black" points="999.5,-582.5 1003.5,-582.5 1003.5,-578.5 999.5,-578.5 "/>
<text text-anchor="middle" x="1129" y="-680.7" font-family="Helvetica,sans-Serif" font-size="11.00">{«factory»</text>
<text text-anchor="start" x="1008.5" y="-668.7" font-family="Helvetica,sans-Serif" font-size="11.00">ItemFactory|+ criar_arma(string): Arma*</text>
<text text-anchor="start" x="1008.5" y="-656.7" font-family="Helvetica,sans-Serif" font-size="11.00">+ criar_armadura(string): Armadura*</text>
<text text-anchor="start" x="1008.5" y="-644.7" font-family="Helvetica,sans-Serif" font-size="11.00">+ criar_pocao(string): Pocao*</text>
<text text-anchor="start" x="1008.5" y="-632.7" font-family="Helvetica,sans-Serif" font-size="11.00">+ criar_item_especial(string): ItemEspecial*</text>
<text text-anchor="start" x="1008.5" y="-620.7" font-family="Helvetica,sans-Serif" font-size="11.00">+ criar_item_por_codigo(string): Item*</text>
<text text-anchor="start" x="1008.5" y="-608.7" font-family="Helvetica,sans-Serif" font-size="11.00">+ codigo_item(Item*): string</text>
<text text-anchor="start" x="1008.5" y="-596.7" font-family="Helvetica,sans-Serif" font-size="11.00">+ preco_item_por_codigo(string): int</text>
<text text-anchor="middle" x="1129" y="-584.7" font-family="Helvetica,sans-Serif" font-size="11.00">}</text>
</g>
<!-- ItemFactory&#45;&gt;Item -->
<g id="edge30" class="edge">
<title>ItemFactory&#45;&gt;Item</title>
<path fill="none" stroke="#444444" stroke-dasharray="5,2" d="M1053.52,-696.51C1031.56,-712.28 1007.01,-728.39 983,-741 875.5,-797.45 741.07,-840.9 658.39,-864.82"/>
<polygon fill="#444444" stroke="#444444" points="648.57,-867.64 656.94,-860.56 653.38,-866.26 658.18,-864.88 658.18,-864.88 658.18,-864.88 653.38,-866.26 659.43,-869.21 648.57,-867.64 648.57,-867.64"/>
<text text-anchor="middle" x="935" y="-779.8" font-family="Helvetica,sans-Serif" font-size="9.00"> &#160;«creates»</text>
</g>
<!-- JogadorFactory -->
<g id="node32" class="node">
<title>JogadorFactory</title>
<polygon fill="#e6e6e6" stroke="black" points="1988,-118.5 1706,-118.5 1706,-114.5 1702,-114.5 1702,-110.5 1706,-110.5 1706,-28.5 1702,-28.5 1702,-24.5 1706,-24.5 1706,-20.5 1988,-20.5 1988,-118.5"/>
<polyline fill="none" stroke="black" points="1706,-114.5 1710,-114.5 1710,-110.5 1706,-110.5 "/>
<polyline fill="none" stroke="black" points="1706,-28.5 1710,-28.5 1710,-24.5 1706,-24.5 "/>
<text text-anchor="middle" x="1847" y="-102.7" font-family="Helvetica,sans-Serif" font-size="11.00">{«factory»</text>
<text text-anchor="start" x="1715" y="-90.7" font-family="Helvetica,sans-Serif" font-size="11.00">JogadorFactory|+ criar_guerreiro(...): Guerreiro*</text>
<text text-anchor="start" x="1715" y="-78.7" font-family="Helvetica,sans-Serif" font-size="11.00">+ criar_mago(...): Mago*</text>
<text text-anchor="start" x="1715" y="-66.7" font-family="Helvetica,sans-Serif" font-size="11.00">+ criar_monstro(...): Monstro*</text>
<text text-anchor="start" x="1715" y="-54.7" font-family="Helvetica,sans-Serif" font-size="11.00">+ criar_arqueiro(...): Arqueiro*</text>
<text text-anchor="start" x="1715" y="-42.7" font-family="Helvetica,sans-Serif" font-size="11.00">+ criar_clerigo(...): Clerigo*</text>
<text text-anchor="middle" x="1847" y="-30.7" font-family="Helvetica,sans-Serif" font-size="11.00">}</text>
</g>
<!-- JogadorFactory&#45;&gt;Jogador -->
<g id="edge31" class="edge">
<title>JogadorFactory&#45;&gt;Jogador</title>
<path fill="none" stroke="#444444" stroke-dasharray="5,2" d="M1747.3,-118.5C1696.67,-144.08 1634.86,-177.19 1582,-211 1579.8,-212.41 1577.59,-213.84 1575.38,-215.28"/>
<polygon fill="#444444" stroke="#444444" points="1566.81,-220.96 1572.66,-211.69 1570.98,-218.2 1575.15,-215.44 1575.15,-215.44 1575.15,-215.44 1570.98,-218.2 1577.63,-219.19 1566.81,-220.96 1566.81,-220.96"/>
<text text-anchor="middle" x="1670" y="-172.8" font-family="Helvetica,sans-Serif" font-size="9.00"> &#160;«creates»</text>
</g>
<!-- HabilidadeFactory -->
<g id="node33" class="node">
<title>HabilidadeFactory</title>
<polygon fill="#e6e6e6" stroke="black" points="780.5,-383.5 459.5,-383.5 459.5,-379.5 455.5,-379.5 455.5,-375.5 459.5,-375.5 459.5,-293.5 455.5,-293.5 455.5,-289.5 459.5,-289.5 459.5,-285.5 780.5,-285.5 780.5,-383.5"/>
<polyline fill="none" stroke="black" points="459.5,-379.5 463.5,-379.5 463.5,-375.5 459.5,-375.5 "/>
<polyline fill="none" stroke="black" points="459.5,-293.5 463.5,-293.5 463.5,-289.5 459.5,-289.5 "/>
<text text-anchor="middle" x="620" y="-367.7" font-family="Helvetica,sans-Serif" font-size="11.00">{«factory»</text>
<text text-anchor="start" x="468.5" y="-355.7" font-family="Helvetica,sans-Serif" font-size="11.00">HabilidadeFactory|+ criar_ofensiva(string): Habilidade*</text>
<text text-anchor="start" x="468.5" y="-343.7" font-family="Helvetica,sans-Serif" font-size="11.00">+ criar_defensiva(string): Habilidade*</text>
<text text-anchor="start" x="468.5" y="-331.7" font-family="Helvetica,sans-Serif" font-size="11.00">+ criar_suporte(string): Habilidade*</text>
<text text-anchor="start" x="468.5" y="-319.7" font-family="Helvetica,sans-Serif" font-size="11.00">+ criar_por_codigo(string): Habilidade*</text>
<text text-anchor="start" x="468.5" y="-307.7" font-family="Helvetica,sans-Serif" font-size="11.00">+ codigo_habilidade(Habilidade*): string</text>
<text text-anchor="middle" x="620" y="-295.7" font-family="Helvetica,sans-Serif" font-size="11.00">}</text>
</g>
<!-- HabilidadeFactory&#45;&gt;Habilidade -->
<g id="edge32" class="edge">
<title>HabilidadeFactory&#45;&gt;Habilidade</title>
<path fill="none" stroke="#444444" stroke-dasharray="5,2" d="M659.52,-383.54C699.72,-432.39 762.43,-508.62 808.2,-564.25"/>
<polygon fill="#444444" stroke="#444444" points="814.83,-572.3 805,-567.44 811.65,-568.44 808.47,-564.58 808.47,-564.58 808.47,-564.58 811.65,-568.44 811.95,-561.72 814.83,-572.3 814.83,-572.3"/>
<text text-anchor="middle" x="776" y="-491.8" font-family="Helvetica,sans-Serif" font-size="9.00"> &#160;«creates»</text>
</g>
<!-- RacaFactory -->
<g id="node34" class="node">
<title>RacaFactory</title>
<polygon fill="#e6e6e6" stroke="black" points="2327,-359.5 2119,-359.5 2119,-355.5 2115,-355.5 2115,-351.5 2119,-351.5 2119,-317.5 2115,-317.5 2115,-313.5 2119,-313.5 2119,-309.5 2327,-309.5 2327,-359.5"/>
<polyline fill="none" stroke="black" points="2119,-355.5 2123,-355.5 2123,-351.5 2119,-351.5 "/>
<polyline fill="none" stroke="black" points="2119,-317.5 2123,-317.5 2123,-313.5 2119,-313.5 "/>
<text text-anchor="middle" x="2223" y="-343.7" font-family="Helvetica,sans-Serif" font-size="11.00">{«factory»</text>
<text text-anchor="start" x="2128" y="-331.7" font-family="Helvetica,sans-Serif" font-size="11.00">RacaFactory|+ criar(string): Raca*</text>
<text text-anchor="middle" x="2223" y="-319.7" font-family="Helvetica,sans-Serif" font-size="11.00">}</text>
</g>
<!-- RacaFactory&#45;&gt;Raca -->
<g id="edge33" class="edge">
<title>RacaFactory&#45;&gt;Raca</title>
<path fill="none" stroke="#444444" stroke-dasharray="5,2" d="M2202.92,-359.72C2162.64,-408.28 2071.24,-518.47 2017.22,-583.6"/>
<polygon fill="#444444" stroke="#444444" points="2010.82,-591.32 2013.74,-580.75 2014.01,-587.47 2017.2,-583.62 2017.2,-583.62 2017.2,-583.62 2014.01,-587.47 2020.67,-586.49 2010.82,-591.32 2010.82,-591.32"/>
<text text-anchor="middle" x="2116" y="-491.8" font-family="Helvetica,sans-Serif" font-size="9.00"> &#160;«creates»</text>
</g>
<!-- Persistencia -->
<g id="node35" class="node">
<title>Persistencia</title>
<polygon fill="#e6e6e6" stroke="black" points="2342,-106.5 2020,-106.5 2020,-102.5 2016,-102.5 2016,-98.5 2020,-98.5 2020,-40.5 2016,-40.5 2016,-36.5 2020,-36.5 2020,-32.5 2342,-32.5 2342,-106.5"/>
<polyline fill="none" stroke="black" points="2020,-102.5 2024,-102.5 2024,-98.5 2020,-98.5 "/>
<polyline fill="none" stroke="black" points="2020,-40.5 2024,-40.5 2024,-36.5 2020,-36.5 "/>
<text text-anchor="middle" x="2181" y="-90.7" font-family="Helvetica,sans-Serif" font-size="11.00">{«facade»</text>
<text text-anchor="start" x="2029" y="-78.7" font-family="Helvetica,sans-Serif" font-size="11.00">Persistencia|+ salvar(vector~Jogador*~&amp;, string): void</text>
<text text-anchor="start" x="2029" y="-66.7" font-family="Helvetica,sans-Serif" font-size="11.00">+ carregar(string): vector~Jogador*~</text>
<text text-anchor="start" x="2029" y="-54.7" font-family="Helvetica,sans-Serif" font-size="11.00">+ restaura inventario/habilidades/ouro</text>
<text text-anchor="middle" x="2181" y="-42.7" font-family="Helvetica,sans-Serif" font-size="11.00">}</text>
</g>
<!-- Persistencia&#45;&gt;Jogador -->
<g id="edge34" class="edge">
<title>Persistencia&#45;&gt;Jogador</title>
<path fill="none" stroke="#444444" stroke-dasharray="5,2" d="M2097.98,-106.58C2068.7,-118.24 2035.29,-130.37 2004,-139 1912.29,-164.29 1669.26,-173.1 1582,-211 1579.91,-211.91 1577.81,-212.85 1575.73,-213.82"/>
<polygon fill="#444444" stroke="#444444" points="1566.6,-218.28 1573.61,-209.85 1571.09,-216.09 1575.59,-213.89 1575.59,-213.89 1575.59,-213.89 1571.09,-216.09 1577.56,-217.94 1566.6,-218.28 1566.6,-218.28"/>
<text text-anchor="middle" x="1841" y="-172.8" font-family="Helvetica,sans-Serif" font-size="9.00"> &#160;«serializa/reconstroi»</text>
</g>
</g>
</svg>
